<?xml version="1.0" encoding="UTF-8" standalone="no"?>
<!DOCTYPE svg PUBLIC "-//W3C//DTD SVG 1.1//EN" "http://www.w3.org/Graphics/SVG/1.1/DTD/svg11.dtd">
<svg xmlns="http://www.w3.org/2000/svg" version="1.1" viewBox="0 0 1542 301" width="1542.0pt" height="301.0pt">
<path d="M 0.00 0.00 L 1278.22 0.00 `C 1271.29 1.62 1264.96 4.83 1260.65 10.65 C 1253.07 20.52 1253.72 35.55 1262.55 44.44 C 1273.32 55.79 1293.38 55.47 1303.74 43.74 C 1312.42 34.04 1312.13 18.20 1303.32 8.68 C 1299.11 3.91 1293.51 1.52 1287.46 0.00 L 1542.00 0.00 L 1542.00 182.55 C 1540.83 167.65 1537.20 153.06 1530.17 139.81 C 1522.48 124.96 1510.90 112.25 1496.96 103.05 C 1481.99 93.15 1464.78 87.30 1446.99 85.26 C 1428.20 83.07 1408.63 84.66 1390.65 90.65 C 1374.17 96.13 1359.06 105.48 1347.15 118.14 C 1335.32 130.65 1327.03 146.21 1322.83 162.88 C 1315.38 193.13 1320.19 226.95 1338.42 252.57 C 1348.37 266.69 1362.06 277.96 1377.66 285.34 C 1393.13 292.72 1409.92 296.21 1427.01 296.70 C 1449.62 297.25 1472.32 292.47 1491.90 280.88 C 1510.65 269.91 1525.54 252.93 1533.85 232.84 C 1538.36 222.36 1540.45 211.36 1542.00 200.11 L 1542.00 301.00 L 0.00 301.00 L 0.00 0.00 Z" fill="#ffffff" />
<path d="M 1278.22 0.00 L 1287.46 0.00 C 1293.51 1.52 1299.11 3.91 1303.32 8.68 C 1312.13 18.20 1312.42 34.04 1303.74 43.74 C 1293.38 55.47 1273.32 55.79 1262.55 44.44 C 1253.72 35.55 1253.07 20.52 1260.65 10.65 C 1264.96 4.83 1271.29 1.62 1278.22 0.00 Z" fill="#b7c6c9" />
<path d="M 1179.26 7.78 C 1194.75 7.73 1210.25 7.73 1225.74 7.78 C 1225.76 102.59 1225.76 197.41 1225.74 292.22 C 1210.25 292.27 1194.75 292.27 1179.26 292.22 C 1179.15 276.26 1179.41 260.28 1179.13 244.32 C 1175.00 245.89 1174.35 249.69 1172.10 253.10 C 1162.95 268.15 1149.36 280.89 1133.34 288.34 C 1105.20 301.68 1070.37 299.01 1044.73 281.26 C 1029.64 270.90 1017.87 256.06 1010.74 239.24 C 1003.41 222.14 1000.75 203.50 1002.03 184.99 C 1003.33 166.55 1008.87 148.56 1019.14 133.12 C 1028.23 119.33 1041.00 108.04 1055.94 100.95 C 1082.59 88.36 1115.08 89.40 1140.53 104.47 C 1154.93 112.91 1166.93 125.45 1174.85 140.14 C 1175.99 142.30 1176.91 142.88 1179.15 143.86 C 1179.38 98.51 1179.17 53.13 1179.26 7.78 Z" fill="#b7c6c9" />
<path d="M 643.44 22.71 C 653.24 22.02 663.18 22.43 673.00 22.12 C 680.34 21.89 687.66 22.03 694.99 22.01 C 695.02 40.00 694.98 58.00 695.01 75.99 C 713.34 76.02 731.66 75.98 749.99 76.01 C 750.00 89.26 750.02 102.50 749.98 115.75 C 731.66 115.77 713.34 115.73 695.02 115.77 C 694.97 143.85 695.02 171.92 694.99 200.00 C 694.93 207.05 694.84 213.88 696.29 220.83 C 698.00 229.48 701.65 237.72 708.45 243.56 C 715.79 249.87 725.52 252.18 734.99 252.49 C 747.90 252.83 760.93 250.27 772.70 244.95 C 773.35 259.93 774.01 274.91 774.72 289.88 C 748.98 297.69 721.75 299.22 695.61 292.39 C 680.77 288.38 667.04 280.75 657.73 268.26 C 647.29 254.38 643.69 237.08 643.50 220.00 C 643.51 188.01 643.48 155.99 643.51 124.00 C 642.99 96.01 643.35 68.00 643.25 40.00 C 643.39 34.25 642.91 28.43 643.44 22.71 Z" fill="#b7c6c9" />
<path d="M 105.47 84.59 C 127.10 83.27 149.87 86.86 169.35 96.64 C 185.91 104.73 200.25 117.22 210.24 132.73 C 219.49 146.97 224.87 163.33 226.55 180.19 C 227.95 196.49 226.64 212.85 221.39 228.40 C 215.71 245.50 205.49 261.04 191.94 272.93 C 179.59 283.80 164.75 291.56 148.92 295.93 C 133.29 300.36 117.14 301.31 101.00 300.07 C 81.35 298.29 62.26 292.26 45.86 281.16 C 31.43 271.42 19.39 257.91 11.72 242.26 C 3.91 226.69 0.33 209.38 0.46 192.00 C 0.44 170.79 6.24 149.74 18.07 132.05 C 27.71 117.49 41.15 105.65 56.66 97.65 C 71.78 89.75 88.47 85.61 105.47 84.59 Z" fill="#b7c6c9" />
<path d="M 1446.99 85.26 C 1464.78 87.30 1481.99 93.15 1496.96 103.05 C 1510.90 112.25 1522.48 124.96 1530.17 139.81 C 1537.20 153.06 1540.83 167.65 1542.00 182.55 L 1542.00 200.11 C 1540.45 211.36 1538.36 222.36 1533.85 232.84 C 1525.54 252.93 1510.65 269.91 1491.90 280.88 C 1472.32 292.47 1449.62 297.25 1427.01 296.70 C 1409.92 296.21 1393.13 292.72 1377.66 285.34 C 1362.06 277.96 1348.37 266.69 1338.42 252.57 C 1320.19 226.95 1315.38 193.13 1322.83 162.88 C 1327.03 146.21 1335.32 130.65 1347.15 118.14 C 1359.06 105.48 1374.17 96.13 1390.65 90.65 C 1408.63 84.66 1428.20 83.07 1446.99 85.26 Z" fill="#b7c6c9" />
<path d="M 1258.01 87.52 C 1274.50 87.48 1290.99 87.49 1307.47 87.51 C 1307.52 155.84 1307.52 224.16 1307.47 292.49 C 1290.99 292.51 1274.50 292.52 1258.01 292.48 C 1257.99 224.16 1257.99 155.84 1258.01 87.52 Z" fill="#b7c6c9" />
<path d="M 356.00 89.65 C 368.32 88.98 380.57 89.86 392.36 93.67 C 391.89 107.40 391.57 121.14 391.18 134.88 C 385.00 131.44 378.60 128.92 371.47 128.39 C 355.28 126.87 338.66 130.49 325.81 140.79 C 313.23 150.83 306.11 165.63 303.39 181.27 C 301.49 191.27 302.07 200.91 302.00 211.00 C 301.99 239.16 302.02 267.32 301.99 295.48 C 286.00 295.52 270.00 295.52 254.01 295.48 C 253.98 232.99 254.01 170.49 254.00 108.00 C 253.96 103.02 254.00 98.04 254.10 93.06 C 270.81 92.93 287.52 93.02 304.23 93.02 C 304.26 99.34 304.27 105.66 304.22 111.98 C 318.16 98.40 336.63 90.74 356.00 89.65 Z" fill="#b7c6c9" />
<path d="M 564.00 94.16 C 579.69 95.35 595.03 98.99 609.70 104.63 C 609.82 115.72 609.72 126.82 609.76 137.91 C 600.85 133.85 591.65 130.81 582.05 128.87 C 568.14 126.07 552.74 124.56 538.79 127.69 C 530.59 129.60 521.47 133.62 517.46 141.52 C 512.88 150.63 516.64 161.58 524.76 167.26 C 536.42 175.66 553.00 178.41 566.79 181.35 C 580.77 184.64 595.81 189.73 607.08 198.90 C 615.03 205.23 620.73 213.98 623.21 223.84 C 625.45 232.89 625.67 242.69 623.67 251.79 C 620.88 264.32 613.12 275.35 602.54 282.54 C 587.96 292.73 569.49 296.30 552.00 296.72 C 519.41 297.15 486.17 289.65 457.90 273.15 C 461.40 261.80 464.98 250.48 468.48 239.13 C 488.90 253.55 513.94 262.33 539.00 262.77 C 550.05 262.75 563.86 261.08 572.44 253.42 C 579.69 247.20 580.70 236.49 576.92 228.12 C 574.25 222.51 569.16 218.94 563.74 216.26 C 551.97 210.59 539.52 208.77 527.07 205.88 C 512.34 202.25 496.49 196.24 485.21 185.78 C 469.10 171.22 464.79 145.09 475.04 126.04 C 482.05 113.12 494.11 104.75 507.62 99.64 C 525.98 92.84 544.73 92.74 564.00 94.16 Z" fill="#b7c6c9" />
<path d="M 778.77 93.52 C 793.84 93.47 808.92 93.49 823.99 93.52 C 824.01 128.34 824.01 163.17 823.99 198.00 C 823.90 210.68 825.07 222.83 830.57 234.43 C 835.22 244.50 842.91 253.04 852.77 258.22 C 869.13 266.73 890.24 266.11 905.54 255.54 C 918.70 246.64 926.70 231.85 929.47 216.43 C 931.18 207.90 930.71 199.63 930.75 191.00 C 930.77 158.51 930.72 126.02 930.77 93.52 C 945.84 93.47 960.92 93.49 975.99 93.52 C 976.01 160.50 976.01 227.50 975.99 294.48 C 961.07 294.49 946.15 294.57 931.24 294.44 C 930.90 287.09 930.99 279.75 931.02 272.39 C 928.71 277.48 926.32 282.30 922.33 286.32 C 916.32 292.53 908.52 295.65 900.19 297.31 C 886.49 299.98 871.99 299.08 858.00 299.27 C 840.35 299.38 822.90 294.04 809.09 282.89 C 794.62 271.31 785.47 254.48 781.49 236.54 C 779.01 225.78 778.67 215.00 778.74 204.00 C 778.78 167.17 778.71 130.35 778.77 93.52 Z" fill="#b7c6c9" />
<path d="M 105.47 123.62 C 116.60 122.47 127.91 123.66 138.40 127.62 C 151.11 132.29 162.19 141.02 169.78 152.23 C 186.30 176.51 185.72 211.51 168.11 235.08 C 159.18 247.14 146.09 255.83 131.56 259.52 C 114.04 264.01 94.91 261.83 79.14 252.86 C 65.88 245.33 55.52 233.10 50.17 218.82 C 41.30 195.36 44.84 166.56 61.12 147.09 C 72.10 133.70 88.33 125.46 105.47 123.62 Z" fill="#ffffff" />
<path d="M 1419.27 123.38 C 1431.22 121.48 1443.79 122.59 1455.12 126.88 C 1468.05 131.69 1479.23 140.73 1486.68 152.33 C 1500.93 174.45 1501.17 205.04 1487.49 227.47 C 1479.59 240.32 1467.29 250.20 1452.96 254.97 C 1437.42 260.18 1419.66 259.77 1404.47 253.54 C 1390.34 247.86 1378.51 236.97 1371.51 223.47 C 1359.44 200.14 1361.33 169.37 1377.27 148.28 C 1387.33 134.80 1402.71 125.95 1419.27 123.38 Z" fill="#ffffff" />
<path d="M 1087.29 134.39 C 1102.02 131.90 1117.37 134.07 1130.36 141.63 C 1143.83 149.27 1153.62 162.35 1157.78 177.20 C 1162.10 192.73 1160.79 210.04 1153.53 224.50 C 1147.49 236.87 1137.13 246.93 1124.57 252.57 C 1101.39 263.14 1072.01 258.30 1054.29 239.71 C 1033.21 218.24 1031.43 181.33 1049.48 157.48 C 1058.55 145.28 1072.36 137.05 1087.29 134.39 Z" fill="#ffffff" />
</svg>